<svg width="200" height="40" viewBox="0 0 200 40" fill="none" xmlns="http://www.w3.org/2000/svg">
<mask id="mask0" mask-type="alpha" maskUnits="userSpaceOnUse" x="0" y="0" width="40" height="40">
<path fill-rule="evenodd" clip-rule="evenodd" d="M0 0.552124H39.0196V39.5722H0V0.552124Z" fill="white"/>
</mask>
<g mask="url(#mask0)">
<path fill-rule="evenodd" clip-rule="evenodd" d="M30.161 30.2153C30.161 30.2153 25.9802 28.7227 19.4105 28.7227C12.8408 28.7227 8.66006 30.2153 8.66006 30.2153V9.90921H8.95859C8.95859 9.90921 10.7504 27.8264 19.4105 27.8264C28.0706 27.8264 29.8624 9.90921 29.8624 9.90921H30.161V30.2153ZM19.4105 0.552124C8.66006 0.552124 0 9.31216 0 20.0619C0 30.8124 8.75934 39.5724 19.5098 39.5724C30.2609 39.5724 39.0196 30.8124 39.0196 20.0619C39.0196 9.31216 30.161 0.552124 19.4105 0.552124Z" fill="white"/>
</g>
<mask id="mask1" mask-type="alpha" maskUnits="userSpaceOnUse" x="58" y="10" width="142" height="20">
<path fill-rule="evenodd" clip-rule="evenodd" d="M58.1694 10.886H199.421V29.5172H58.1694V10.886Z" fill="white"/>
</mask>
<g mask="url(#mask1)">
<path fill-rule="evenodd" clip-rule="evenodd" d="M199.421 16.4056C199.118 16.3066 198.816 16.209 198.311 16.209C196.897 16.209 195.787 16.9969 194.978 18.1802V17.9835C194.978 17.1942 194.777 16.8003 194.474 16.3066L191.95 16.9969C192.252 17.7862 192.354 18.6732 192.354 20.1521V29.1225H195.18V20.7434C195.282 20.0537 195.483 19.7574 195.988 19.3635C196.493 18.8705 197.099 18.7715 197.704 18.7715C198.008 18.7715 198.209 18.8705 198.512 18.9695L199.421 16.4056ZM190.132 23.4049V22.9119C190.132 20.1521 189.527 18.5741 188.517 17.5889C187.608 16.702 186.296 16.209 184.781 16.209C183.166 16.209 181.853 16.8003 180.743 17.8845C179.733 18.9695 179.126 20.546 179.126 22.7152C179.126 26.7567 181.45 29.3198 185.185 29.3198C186.901 29.3198 188.617 28.7285 189.93 27.6443L188.82 26.067C187.81 26.855 186.699 27.2496 185.488 27.2496C184.276 27.2496 183.266 26.7567 182.661 25.968C182.257 25.3767 182.055 24.4891 182.055 23.6022V23.4049H190.132ZM178.219 29.0242L177.714 27.4469C177.31 27.5453 177.007 27.4469 176.805 27.2496C176.603 26.954 176.502 26.461 176.502 25.2777V14.4344C176.502 12.8572 176.502 11.6739 176.3 10.886L173.472 11.4766C173.675 12.4625 173.776 13.3502 173.776 15.1247V25.968C173.776 27.3486 174.079 28.0382 174.382 28.5312C174.786 29.1225 175.593 29.4188 176.502 29.4188C177.107 29.3198 177.612 29.2215 178.219 29.0242ZM164.386 12.8572C164.386 11.8712 163.578 11.0826 162.467 11.0826C161.458 11.0826 160.549 11.8712 160.549 12.8572C160.549 13.8424 161.458 14.6311 162.366 14.6311C163.578 14.6311 164.386 13.8424 164.386 12.8572ZM171.756 29.0242L171.251 27.4469H170.949C170.444 27.4469 170.04 27.1513 170.04 26.2637V14.4344C170.04 12.8572 170.04 11.6739 169.838 10.886L167.011 11.4766C167.213 12.4625 167.314 13.3502 167.314 15.1247V26.461C167.314 28.3346 168.424 29.4188 170.04 29.4188C170.747 29.3198 171.251 29.2215 171.756 29.0242ZM163.881 16.209L161.054 16.6029V29.1259H163.881V16.209ZM158.227 29.0242L156.713 11.8712H152.775L149.241 24.4891L145.707 11.9696H141.669L139.952 29.1225H142.577L143.789 14.7294L147.928 29.1225H150.048L154.188 15.0257L155.4 29.1225H158.227V29.0242ZM136.822 28.9272V19.6605C136.822 17.2946 135.409 16.2104 133.288 16.2104C131.875 16.2104 130.763 16.7033 129.249 17.8859C129.249 17.2946 129.047 16.7033 128.745 16.2104L126.221 16.9007C126.625 17.7876 126.625 18.3789 126.625 19.8578V29.1239H129.351V20.0551C130.259 19.1682 131.471 18.5762 132.38 18.5762C133.49 18.5762 133.894 19.0692 133.894 20.8437V29.1239H136.822V28.9272ZM124.403 27.8409C123.495 27.2496 123.192 26.7567 123.192 25.2777V24.8838L123.293 21.138V20.3487C123.263 18.6051 123.15 18.3397 123.091 18.1802C122.579 16.8023 121.172 16.11 119.153 16.11C117.942 16.11 116.831 16.3066 115.619 16.8003C114.912 17.0959 114.206 17.3916 113.499 17.7862L114.711 19.6584C115.215 19.2644 115.619 19.0678 116.326 18.7715C117.235 18.3775 118.043 18.1802 118.749 18.1802C119.557 18.1802 119.961 18.3775 120.263 18.7715C120.567 19.1668 120.668 19.5608 120.668 20.4477V21.3353H119.758C115.417 21.3353 113.095 22.8136 113.095 25.7707C113.095 26.7567 113.398 27.8409 114.104 28.4329C114.912 29.1225 115.821 29.4188 117.437 29.4188C118.547 29.4188 119.425 29.1459 120.211 28.6206C120.567 28.382 120.668 28.2356 121.071 27.8409C121.374 28.6295 122.081 29.2215 122.889 29.5172L124.403 27.8409ZM110.773 19.8564C110.773 18.4758 110.47 17.5889 109.763 16.9969C109.258 16.5046 108.249 16.209 107.34 16.209C105.927 16.209 104.412 16.8993 103.302 18.0819C102.696 16.8993 101.585 16.209 100.171 16.209C98.9602 16.209 97.5462 16.8993 96.6378 17.7862C96.5364 17.1942 96.3343 16.6029 96.1329 16.209L93.6084 16.8003C94.0126 17.5889 94.114 18.0819 94.114 19.8564V29.1225H96.8392V19.6584C97.9497 18.7715 98.8588 18.3775 99.6665 18.3775C100.777 18.3775 101.181 18.9695 101.181 20.3487V29.1225H103.907V19.8564C105.018 18.7715 106.027 18.2792 106.835 18.2792C107.845 18.2792 108.249 18.7715 108.249 20.0537V29.1259H110.773V19.8564ZM92.8007 16.4056C92.4979 16.3066 92.1951 16.209 91.6902 16.209C90.2769 16.209 89.2671 16.9969 88.358 18.1802V17.9835C88.358 17.1942 88.1566 16.8003 87.8538 16.3066L85.2286 16.9969C85.5314 17.7862 85.6328 18.6732 85.6328 20.1521V29.1225H88.4594V20.7434C88.5601 20.0537 88.7622 19.7574 89.2671 19.3635C89.772 18.8705 90.3776 18.7715 90.9839 18.7715C91.286 18.7715 91.4888 18.8705 91.7916 18.9695L92.8007 16.4056ZM83.6125 23.4049V22.9119C83.6125 20.1521 83.0076 18.5741 81.9977 17.5889C81.0886 16.702 79.776 16.209 78.3627 16.209C76.6459 16.209 75.334 16.8003 74.3242 17.8845C73.3144 18.9695 72.7088 20.546 72.7088 22.7152C72.7088 26.7567 75.0305 29.3198 78.7669 29.3198C80.5844 29.3198 82.1991 28.7285 83.5118 27.6443L82.4012 26.067C81.3914 26.855 80.2816 27.2496 79.0697 27.2496C77.8578 27.2496 76.8487 26.7567 76.2424 25.968C75.8382 25.3767 75.7375 24.4891 75.7375 23.6022V23.4049H83.6125ZM70.3864 29.1259V11.9696H67.5598V18.8705H60.9967V11.9696H58.1694V29.1225H60.9967V21.138H67.5598V29.1225L70.3864 29.1259ZM187.204 21.532H182.257C182.358 19.3635 183.166 18.1802 184.781 18.1802C186.296 18.1802 187.204 19.4618 187.204 21.532ZM120.562 23.1848L120.465 26.067C119.961 26.954 118.951 27.4469 117.942 27.4469C116.73 27.4469 116.023 26.7567 116.023 25.4751C116.023 24.6864 116.243 24.1948 116.723 23.7933C117.266 23.3395 118.244 23.0102 119.961 23.0102C120.151 23.0102 120.434 23.0191 120.567 23.0425L120.562 23.1848ZM80.6851 21.532H75.6368C75.6368 19.3635 76.6459 18.1802 78.1606 18.1802C79.776 18.1802 80.6851 19.4618 80.6851 21.532Z" fill="white"/>
</g>
</svg>
