<svg xmlns="http://www.w3.org/2000/svg" viewBox="0 0 255 92" width="255" height="92" preserveAspectRatio="xMidYMid meet" style="width: 100%; height: 100%; transform: translate3d(0px, 0px, 0px);"><defs><clipPath id="__lottie_element_3"><rect width="255" height="92" x="0" y="0"></rect></clipPath></defs><g clip-path="url(#__lottie_element_3)"><g transform="matrix(1.3327000141143799,0,0,1.3351000547409058,0,0)" opacity="1" style="display: block;"><g opacity="1" transform="matrix(1,0,0,1,0,0)"><g opacity="1" transform="matrix(1,0,0,1,0,0)"><path fill="rgb(68,175,53)" fill-opacity="0.9999999684059089" d=" M0,13.90999984741211 C0,13.90999984741211 0,56.43000030517578 0,56.43000030517578 C0,56.43000030517578 23.200000762939453,56.43000030517578 23.200000762939453,56.43000030517578 C23.200000762939453,56.43000030517578 25.799999237060547,46.84000015258789 25.799999237060547,46.84000015258789 C25.799999237060547,46.84000015258789 11.149999618530273,46.84000015258789 11.149999618530273,46.84000015258789 C11.149999618530273,46.84000015258789 11.149999618530273,13.90999984741211 11.149999618530273,13.90999984741211 C11.149999618530273,13.90999984741211 0,13.90999984741211 0,13.90999984741211z"></path></g><g opacity="1" transform="matrix(1,0,0,1,0,0)"><path fill="rgb(68,175,53)" fill-opacity="0.9999999684059089" d=" M39.77000045776367,32.709999084472656 C36.63999938964844,32.709999084472656 34.93000030517578,34.27000045776367 34.93000030517578,37.400001525878906 C34.93000030517578,38.650001525878906 35.189998626708984,39.959999084472656 35.599998474121094,41.15999984741211 C37.7400016784668,40.06999969482422 42.849998474121094,37.040000915527344 42.849998474121094,34.33000183105469 C42.849998474121094,32.709999084472656 40.970001220703125,32.709999084472656 39.77000045776367,32.709999084472656 M49.04999923706055,56.43000030517578 C49.04999923706055,56.43000030517578 43,56.43000030517578 43,56.43000030517578 C32.9900016784668,56.43000030517578 24.709999084472656,47.56999969482422 24.709999084472656,37.040000915527344 C24.81999969482422,28.18000030517578 28.81999969482422,24.049999237060547 39.13999938964844,24.209999084472656 C39.13999938964844,24.209999084472656 41.22999954223633,24.209999084472656 41.22999954223633,24.209999084472656 C53.529998779296875,24.209999084472656 53.060001373291016,31.350000381469727 53.060001373291016,32.90999984741211 C53.060001373291016,39.88999938964844 47.119998931884766,44.279998779296875 41.650001525878906,47.349998474121094 C44.2599983215332,47.91999816894531 45.91999816894531,47.93000030517578 47.59000015258789,47.93000030517578 C47.59000015258789,47.93000030517578 51.54999923706055,47.93000030517578 51.54999923706055,47.93000030517578 C51.54999923706055,47.93000030517578 49.04999923706055,56.43000030517578 49.04999923706055,56.43000030517578z"></path></g><g opacity="1" transform="matrix(1,0,0,1,0,0)"><path fill="rgb(68,175,53)" fill-opacity="0.9999999684059089" d=" M85.47000122070312,24.959999084472656 C94.0199966430664,24.959999084472656 96.7300033569336,28.709999084472656 96.7300033569336,37.04999923706055 C96.7300033569336,37.04999923706055 96.7300033569336,56.43000030517578 96.7300033569336,56.43000030517578 C96.7300033569336,56.43000030517578 86.9800033569336,56.43000030517578 86.9800033569336,56.43000030517578 C86.9800033569336,56.43000030517578 86.9800033569336,38.5099983215332 86.9800033569336,38.5099983215332 C86.87000274658203,34.439998626708984 86.83000183105469,33.560001373291016 82.61000061035156,33.459999084472656 C82.61000061035156,33.459999084472656 80.98999786376953,33.459999084472656 80.98999786376953,33.459999084472656 C80.98999786376953,33.459999084472656 80.98999786376953,56.43000030517578 80.98999786376953,56.43000030517578 C80.98999786376953,56.43000030517578 71.25,56.43000030517578 71.25,56.43000030517578 C71.25,56.43000030517578 71.25,33.459999084472656 71.25,33.459999084472656 C71.25,33.459999084472656 65.25,33.459999084472656 65.25,33.459999084472656 C65.25,33.459999084472656 65.25,56.43000030517578 65.25,56.43000030517578 C65.25,56.43000030517578 55.5,56.43000030517578 55.5,56.43000030517578 C55.5,56.43000030517578 55.5,24.959999084472656 55.5,24.959999084472656 C55.5,24.959999084472656 85.47000122070312,24.959999084472656 85.47000122070312,24.959999084472656z"></path></g><g opacity="1" transform="matrix(1,0,0,1,0,0)"><g opacity="1" transform="matrix(1,0,0,1,0,0)"><path fill="rgb(255,221,0)" fill-opacity="1" d=" M180.0800018310547,24.959999084472656 C188.6300048828125,24.959999084472656 191.33999633789062,28.709999084472656 191.33999633789062,37.04999923706055 C191.33999633789062,37.04999923706055 191.33999633789062,56.43000030517578 191.33999633789062,56.43000030517578 C191.33999633789062,56.43000030517578 181.3300018310547,56.43000030517578 181.3300018310547,56.43000030517578 C181.3300018310547,56.43000030517578 181.3300018310547,38.5099983215332 181.3300018310547,38.5099983215332 C181.22000122070312,34.439998626708984 181.1699981689453,33.560001373291016 176.9499969482422,33.459999084472656 C176.9499969482422,33.459999084472656 174.55999755859375,33.459999084472656 174.55999755859375,33.459999084472656 C174.55999755859375,33.459999084472656 174.55999755859375,56.43000030517578 174.55999755859375,56.43000030517578 C174.55999755859375,56.43000030517578 164.5500030517578,56.43000030517578 164.5500030517578,56.43000030517578 C164.5500030517578,56.43000030517578 164.5500030517578,24.959999084472656 164.5500030517578,24.959999084472656 C164.5500030517578,24.959999084472656 180.0800018310547,24.959999084472656 180.0800018310547,24.959999084472656z"></path></g></g><g opacity="1" transform="matrix(1,0,0,1,0,0)"><path fill="rgb(0,79,163)" fill-opacity="0.9999999684059089" d=" M26.270000457763672,13.720000267028809 C26.270000457763672,13.720000267028809 22.31999969482422,6.380000114440918 22.31999969482422,6.380000114440918 C22.31999969482422,6.380000114440918 25.15999984741211,6.380000114440918 25.15999984741211,6.380000114440918 C25.15999984741211,6.380000114440918 27.549999237060547,11.140000343322754 27.549999237060547,11.140000343322754 C27.549999237060547,11.140000343322754 29.959999084472656,6.380000114440918 29.959999084472656,6.380000114440918 C29.959999084472656,6.380000114440918 32.72999954223633,6.380000114440918 32.72999954223633,6.380000114440918 C32.72999954223633,6.380000114440918 28.780000686645508,13.680000305175781 28.780000686645508,13.680000305175781 C28.780000686645508,13.680000305175781 28.780000686645508,18.5 28.780000686645508,18.5 C28.780000686645508,18.5 26.270000457763672,18.5 26.270000457763672,18.5 C26.270000457763672,18.5 26.270000457763672,13.720000267028809 26.270000457763672,13.720000267028809z"></path></g><g opacity="1" transform="matrix(1,0,0,1,0,0)"><path fill="rgb(0,79,163)" fill-opacity="0.9999999684059089" d=" M38.02000045776367,13.4399995803833 C38.02000045776367,13.4399995803833 35.81999969482422,13.4399995803833 35.81999969482422,13.4399995803833 C35.81999969482422,13.4399995803833 35.81999969482422,16.280000686645508 35.81999969482422,16.280000686645508 C35.81999969482422,16.280000686645508 38.06999969482422,16.280000686645508 38.06999969482422,16.280000686645508 C39.189998626708984,16.280000686645508 39.90999984741211,15.789999961853027 39.90999984741211,14.859999656677246 C39.90999984741211,14.859999656677246 39.90999984741211,14.850000381469727 39.90999984741211,14.850000381469727 C39.90999984741211,13.979999542236328 39.27000045776367,13.4399995803833 38.02000045776367,13.4399995803833 M39.38999938964844,9.949999809265137 C39.38999938964844,9.069999694824219 38.77000045776367,8.59000015258789 37.70000076293945,8.59000015258789 C37.70000076293945,8.59000015258789 35.81999969482422,8.59000015258789 35.81999969482422,8.59000015258789 C35.81999969482422,8.59000015258789 35.81999969482422,11.329999923706055 35.81999969482422,11.329999923706055 C35.81999969482422,11.329999923706055 37.56999969482422,11.329999923706055 37.56999969482422,11.329999923706055 C38.68000030517578,11.329999923706055 39.38999938964844,10.880000114440918 39.38999938964844,9.960000038146973 C39.38999938964844,9.960000038146973 39.38999938964844,9.949999809265137 39.38999938964844,9.949999809265137z M33.38999938964844,6.380000114440918 C33.38999938964844,6.380000114440918 37.88999938964844,6.380000114440918 37.88999938964844,6.380000114440918 C39.2400016784668,6.380000114440918 40.36000061035156,6.739999771118164 41.04999923706055,7.429999828338623 C41.59000015258789,7.980000019073486 41.869998931884766,8.640000343322754 41.869998931884766,9.489999771118164 C41.869998931884766,9.489999771118164 41.869998931884766,9.539999961853027 41.869998931884766,9.539999961853027 C41.869998931884766,10.960000038146973 41.09000015258789,11.729999542236328 40.220001220703125,12.1899995803833 C41.52000045776367,12.6899995803833 42.38999938964844,13.489999771118164 42.38999938964844,15.079999923706055 C42.38999938964844,15.079999923706055 42.38999938964844,15.170000076293945 42.38999938964844,15.170000076293945 C42.38999938964844,17.350000381469727 40.63999938964844,18.489999771118164 38.0099983215332,18.489999771118164 C38.0099983215332,18.489999771118164 33.38999938964844,18.489999771118164 33.38999938964844,18.489999771118164 C33.38999938964844,18.489999771118164 33.38999938964844,6.380000114440918 33.38999938964844,6.380000114440918z"></path></g><g opacity="1" transform="matrix(1,0,0,1,0,0)"><path fill="rgb(0,79,163)" fill-opacity="0.9999999684059089" d=" M43.5099983215332,6.380000114440918 C43.5099983215332,6.380000114440918 46.13999938964844,6.380000114440918 46.13999938964844,6.380000114440918 C46.13999938964844,6.380000114440918 48.84000015258789,11.289999961853027 48.84000015258789,11.289999961853027 C48.84000015258789,11.289999961853027 51.5099983215332,6.380000114440918 51.5099983215332,6.380000114440918 C51.5099983215332,6.380000114440918 54.15999984741211,6.380000114440918 54.15999984741211,6.380000114440918 C54.15999984741211,6.380000114440918 54.15999984741211,18.5 54.15999984741211,18.5 C54.15999984741211,18.5 51.70000076293945,18.5 51.70000076293945,18.5 C51.70000076293945,18.5 51.70000076293945,10.760000228881836 51.70000076293945,10.760000228881836 C51.70000076293945,10.760000228881836 48.84000015258789,15.760000228881836 48.84000015258789,15.760000228881836 C48.84000015258789,15.760000228881836 48.790000915527344,15.760000228881836 48.790000915527344,15.760000228881836 C48.790000915527344,15.760000228881836 45.95000076293945,10.789999961853027 45.95000076293945,10.789999961853027 C45.95000076293945,10.789999961853027 45.95000076293945,18.5 45.95000076293945,18.5 C45.95000076293945,18.5 43.5099983215332,18.5 43.5099983215332,18.5 C43.5099983215332,18.5 43.5099983215332,6.380000114440918 43.5099983215332,6.380000114440918z"></path></g><g opacity="1" transform="matrix(1,0,0,1,0,0)"><path fill="rgb(0,79,163)" fill-opacity="0.9999999684059089" d=" M26.270000457763672,13.720000267028809 C26.270000457763672,13.720000267028809 22.31999969482422,6.380000114440918 22.31999969482422,6.380000114440918 C22.31999969482422,6.380000114440918 25.15999984741211,6.380000114440918 25.15999984741211,6.380000114440918 C25.15999984741211,6.380000114440918 27.549999237060547,11.140000343322754 27.549999237060547,11.140000343322754 C27.549999237060547,11.140000343322754 29.959999084472656,6.380000114440918 29.959999084472656,6.380000114440918 C29.959999084472656,6.380000114440918 32.72999954223633,6.380000114440918 32.72999954223633,6.380000114440918 C32.72999954223633,6.380000114440918 28.780000686645508,13.680000305175781 28.780000686645508,13.680000305175781 C28.780000686645508,13.680000305175781 28.780000686645508,18.5 28.780000686645508,18.5 C28.780000686645508,18.5 26.270000457763672,18.5 26.270000457763672,18.5 C26.270000457763672,18.5 26.270000457763672,13.720000267028809 26.270000457763672,13.720000267028809z"></path></g><g opacity="1" transform="matrix(1,0,0,1,0,0)"><path fill="rgb(0,79,163)" fill-opacity="0.9999999684059089" d=" M38.02000045776367,13.4399995803833 C38.02000045776367,13.4399995803833 35.81999969482422,13.4399995803833 35.81999969482422,13.4399995803833 C35.81999969482422,13.4399995803833 35.81999969482422,16.280000686645508 35.81999969482422,16.280000686645508 C35.81999969482422,16.280000686645508 38.06999969482422,16.280000686645508 38.06999969482422,16.280000686645508 C39.189998626708984,16.280000686645508 39.90999984741211,15.789999961853027 39.90999984741211,14.859999656677246 C39.90999984741211,14.859999656677246 39.90999984741211,14.850000381469727 39.90999984741211,14.850000381469727 C39.90999984741211,13.979999542236328 39.27000045776367,13.4399995803833 38.02000045776367,13.4399995803833 M39.38999938964844,9.949999809265137 C39.38999938964844,9.069999694824219 38.77000045776367,8.59000015258789 37.70000076293945,8.59000015258789 C37.70000076293945,8.59000015258789 35.81999969482422,8.59000015258789 35.81999969482422,8.59000015258789 C35.81999969482422,8.59000015258789 35.81999969482422,11.329999923706055 35.81999969482422,11.329999923706055 C35.81999969482422,11.329999923706055 37.56999969482422,11.329999923706055 37.56999969482422,11.329999923706055 C38.68000030517578,11.329999923706055 39.38999938964844,10.880000114440918 39.38999938964844,9.960000038146973 C39.38999938964844,9.960000038146973 39.38999938964844,9.949999809265137 39.38999938964844,9.949999809265137z M33.38999938964844,6.380000114440918 C33.38999938964844,6.380000114440918 37.88999938964844,6.380000114440918 37.88999938964844,6.380000114440918 C39.2400016784668,6.380000114440918 40.36000061035156,6.739999771118164 41.04999923706055,7.429999828338623 C41.59000015258789,7.980000019073486 41.869998931884766,8.640000343322754 41.869998931884766,9.489999771118164 C41.869998931884766,9.489999771118164 41.869998931884766,9.539999961853027 41.869998931884766,9.539999961853027 C41.869998931884766,10.960000038146973 41.09000015258789,11.729999542236328 40.220001220703125,12.1899995803833 C41.52000045776367,12.6899995803833 42.38999938964844,13.489999771118164 42.38999938964844,15.079999923706055 C42.38999938964844,15.079999923706055 42.38999938964844,15.170000076293945 42.38999938964844,15.170000076293945 C42.38999938964844,17.350000381469727 40.63999938964844,18.489999771118164 38.0099983215332,18.489999771118164 C38.0099983215332,18.489999771118164 33.38999938964844,18.489999771118164 33.38999938964844,18.489999771118164 C33.38999938964844,18.489999771118164 33.38999938964844,6.380000114440918 33.38999938964844,6.380000114440918z"></path></g><g opacity="1" transform="matrix(1,0,0,1,0,0)"><path fill="rgb(0,79,163)" fill-opacity="0.9999999684059089" d=" M43.5099983215332,6.380000114440918 C43.5099983215332,6.380000114440918 46.13999938964844,6.380000114440918 46.13999938964844,6.380000114440918 C46.13999938964844,6.380000114440918 48.84000015258789,11.289999961853027 48.84000015258789,11.289999961853027 C48.84000015258789,11.289999961853027 51.5099983215332,6.380000114440918 51.5099983215332,6.380000114440918 C51.5099983215332,6.380000114440918 54.15999984741211,6.380000114440918 54.15999984741211,6.380000114440918 C54.15999984741211,6.380000114440918 54.15999984741211,18.5 54.15999984741211,18.5 C54.15999984741211,18.5 51.70000076293945,18.5 51.70000076293945,18.5 C51.70000076293945,18.5 51.70000076293945,10.760000228881836 51.70000076293945,10.760000228881836 C51.70000076293945,10.760000228881836 48.84000015258789,15.760000228881836 48.84000015258789,15.760000228881836 C48.84000015258789,15.760000228881836 48.790000915527344,15.760000228881836 48.790000915527344,15.760000228881836 C48.790000915527344,15.760000228881836 45.95000076293945,10.789999961853027 45.95000076293945,10.789999961853027 C45.95000076293945,10.789999961853027 45.95000076293945,18.5 45.95000076293945,18.5 C45.95000076293945,18.5 43.5099983215332,18.5 43.5099983215332,18.5 C43.5099983215332,18.5 43.5099983215332,6.380000114440918 43.5099983215332,6.380000114440918z"></path></g><g opacity="1" transform="matrix(1,0,0,1,0,0)"><g opacity="1" transform="matrix(1,0,0,1,0,0)"><path fill="rgb(255,224,0)" fill-opacity="1" d=" M137.77999877929688,17.850000381469727 C135.7899932861328,17.079999923706055 134.99000549316406,16.149999618530273 133.67999267578125,14.350000381469727 C132.3699951171875,12.550000190734863 130.63999938964844,12.880000114440918 130.63999938964844,12.880000114440918 C130.63999938964844,12.880000114440918 128.91000366210938,12.550000190734863 127.5999984741211,14.350000381469727 C126.29000091552734,16.149999618530273 125.48999786376953,17.079999923706055 123.5,17.850000381469727 C121.0999984741211,18.780000686645508 109.08000183105469,25.43000030517578 109.08000183105469,43.02000045776367 C109.08000183105469,54 117.11000061035156,62.08000183105469 122.45999908447266,63.83000183105469 C123.79000091552734,64.26000213623047 124.58999633789062,65.25 125.08000183105469,65.9000015258789 C125.56999969482422,66.55999755859375 127.27999877929688,68.91000366210938 130.6300048828125,68.91000366210938 C133.97999572753906,68.91000366210938 135.6999969482422,66.55999755859375 136.19000244140625,65.9000015258789 C136.67999267578125,65.23999786376953 137.47999572753906,64.26000213623047 138.80999755859375,63.83000183105469 C144.16000366210938,62.08000183105469 152.19000244140625,54 152.19000244140625,43.02000045776367 C152.1999969482422,25.43000030517578 140.17999267578125,18.780000686645508 137.77999877929688,17.850000381469727"></path></g></g><g opacity="1" transform="matrix(1,0,0,1,0,0)"><path fill="rgb(68,175,53)" fill-opacity="0.9999999684059089" d=" M113.75,0 C113.75,0 115.27999877929688,8.949999809265137 121.12000274658203,10.619999885559082 C126.95999908447266,12.289999961853027 126.41000366210938,11.3100004196167 130.67999267578125,12.890000343322754 C130.67999267578125,12.890000343322754 132.02000427246094,6.769999980926514 129.75,3.7100000381469727 C127.16000366210938,0.20999999344348907 124.69000244140625,0.3799999952316284 121.7300033569336,0.8399999737739563 C118.76000213623047,1.2999999523162842 116.3499984741211,1.6699999570846558 113.75,0"></path></g><g opacity="1" transform="matrix(1,0,0,1,0,0)"><path fill="rgb(68,175,53)" fill-opacity="0.9999999684059089" d=" M130.67999267578125,12.890000343322754 C130.67999267578125,12.890000343322754 131.77000427246094,10.600000381469727 131.77000427246094,7.400000095367432 C131.77000427246094,7.400000095367432 132.5,5.989999771118164 134.86000061035156,6.289999961853027 C137.22000122070312,6.590000152587891 138.05999755859375,6.659999847412109 139.14999389648438,5.679999828338623 C139.14999389648438,5.679999828338623 139.0399932861328,9.430000305175781 136.72000122070312,10.84000015258789 C134.41000366210938,12.25 133.60000610351562,11.489999771118164 130.67999267578125,12.890000343322754"></path></g><g opacity="1" transform="matrix(1,0,0,1,0,0)"><path fill="rgb(107,56,5)" fill-opacity="0.9999999684059089" d=" M128.52999877929688,38.79999923706055 C128.32000732421875,38.79999923706055 128.14999389648438,38.630001068115234 128.14999389648438,38.41999816894531 C128.14999389648438,37.20000076293945 127.27999877929688,36.20000076293945 126.19999694824219,36.20000076293945 C125.12000274658203,36.20000076293945 124.23999786376953,37.20000076293945 124.23999786376953,38.41999816894531 C124.23999786376953,38.630001068115234 124.06999969482422,38.79999923706055 123.86000061035156,38.79999923706055 C123.6500015258789,38.79999923706055 123.4800033569336,38.630001068115234 123.4800033569336,38.41999816894531 C123.4800033569336,36.779998779296875 124.69999694824219,35.45000076293945 126.19999694824219,35.45000076293945 C127.69999694824219,35.45000076293945 128.91000366210938,36.779998779296875 128.91000366210938,38.41999816894531 C128.91000366210938,38.630001068115234 128.74000549316406,38.79999923706055 128.52999877929688,38.79999923706055"></path></g><g opacity="1" transform="matrix(1,0,0,1,0,0)"><path fill="rgb(107,56,5)" fill-opacity="0.9999999684059089" d=" M137.42999267578125,38.79999923706055 C137.22000122070312,38.79999923706055 137.0500030517578,38.630001068115234 137.0500030517578,38.41999816894531 C137.0500030517578,37.20000076293945 136.1699981689453,36.20000076293945 135.08999633789062,36.20000076293945 C134.00999450683594,36.20000076293945 133.1300048828125,37.20000076293945 133.1300048828125,38.41999816894531 C133.1300048828125,38.630001068115234 132.9600067138672,38.79999923706055 132.75,38.79999923706055 C132.5399932861328,38.79999923706055 132.3800048828125,38.630001068115234 132.3800048828125,38.41999816894531 C132.3800048828125,36.779998779296875 133.58999633789062,35.45000076293945 135.08999633789062,35.45000076293945 C136.58999633789062,35.45000076293945 137.8000030517578,36.779998779296875 137.8000030517578,38.41999816894531 C137.8000030517578,38.630001068115234 137.63999938964844,38.79999923706055 137.42999267578125,38.79999923706055"></path></g><g opacity="1" transform="matrix(1,0,0,1,0,0)"><path fill="rgb(107,56,5)" fill-opacity="0.9999999684059089" d=" M130.63999938964844,49.59000015258789 C134.57000732421875,49.59000015258789 137.75999450683594,46.40999984741211 137.75999450683594,42.47999954223633 C137.75999450683594,42.47999954223633 123.5199966430664,42.47999954223633 123.5199966430664,42.47999954223633 C123.5199966430664,46.40999984741211 126.70999908447266,49.59000015258789 130.63999938964844,49.59000015258789"></path></g><g opacity="1" transform="matrix(1,0,0,1,0,0)"><path fill="rgb(107,56,5)" fill-opacity="0.9999999684059089" d=" M134.92999267578125,58.099998474121094 C134.92999267578125,58.099998474121094 126.3499984741211,58.099998474121094 126.3499984741211,58.099998474121094 C125.3499984741211,58.099998474121094 124.48999786376953,58.720001220703125 124.12999725341797,59.599998474121094 C113.16000366210938,59.58000183105469 107.5999984741211,56.310001373291016 107.5999984741211,49.900001525878906 C107.5999984741211,49.900001525878906 107.61000061035156,33.959999084472656 107.61000061035156,33.959999084472656 C107.61000061035156,33.470001220703125 107.20999908447266,33.08000183105469 106.72000122070312,33.08000183105469 C102.31999969482422,33.08000183105469 98.75,36.650001525878906 98.75,41.04999923706055 C98.75,45.150001525878906 101.86000061035156,48.529998779296875 105.83999633789062,48.970001220703125 C105.83999633789062,48.970001220703125 105.83999633789062,49.90999984741211 105.83999633789062,49.90999984741211 C105.83999633789062,57.5 112,61.349998474121094 124.13999938964844,61.380001068115234 C124.48999786376953,62.2599983215332 125.36000061035156,62.88999938964844 126.36000061035156,62.88999938964844 C126.36000061035156,62.88999938964844 134.92999267578125,62.88999938964844 134.92999267578125,62.88999938964844 C136.25,62.88999938964844 137.32000732421875,61.810001373291016 137.32000732421875,60.5 C137.32000732421875,59.18000030517578 136.25,58.099998474121094 134.92999267578125,58.099998474121094"></path></g><g opacity="1" transform="matrix(1,0,0,1,0,0)"><path fill="rgb(107,56,5)" fill-opacity="0.9999999684059089" d=" M154.55999755859375,33.08000183105469 C154.07000732421875,33.08000183105469 153.67999267578125,33.470001220703125 153.67999267578125,33.959999084472656 C153.67999267578125,33.959999084472656 153.67999267578125,48.130001068115234 153.67999267578125,48.130001068115234 C153.67999267578125,48.619998931884766 154.07000732421875,49.02000045776367 154.55999755859375,49.02000045776367 C158.9600067138672,49.02000045776367 162.52999877929688,45.45000076293945 162.52999877929688,41.04999923706055 C162.52999877929688,36.650001525878906 158.9600067138672,33.08000183105469 154.55999755859375,33.08000183105469"></path></g><g opacity="1" transform="matrix(1,0,0,1,0,0)"><path fill="rgb(219,84,107)" fill-opacity="0.9999999684059089" d=" M135.3300018310547,47.83000183105469 C134.24000549316406,46.439998626708984 132.5399932861328,45.540000915527344 130.63999938964844,45.540000915527344 C128.72999572753906,45.540000915527344 127.05000305175781,46.439998626708984 125.95999908447266,47.83000183105469 C127.20999908447266,48.93000030517578 128.85000610351562,49.59000015258789 130.63999938964844,49.59000015258789 C132.42999267578125,49.59000015258789 134.0800018310547,48.93000030517578 135.3300018310547,47.83000183105469"></path></g></g></g></g></svg>